<svg id="Capa_1" data-name="Capa 1" xmlns="http://www.w3.org/2000/svg" xmlns:xlink="http://www.w3.org/1999/xlink" viewBox="0 0 1563.36 515.79"><defs><style>.cls-1{fill:#fff;}.cls-2{fill:url(#Degradado_sin_nombre_3);}.cls-3{fill:url(#Degradado_sin_nombre_3-2);}.cls-4{fill:url(#Degradado_sin_nombre_3-3);}.cls-5{fill:url(#Degradado_sin_nombre_3-4);}.cls-6{fill:url(#Degradado_sin_nombre_3-5);}.cls-7{fill:none;}.cls-10,.cls-8,.cls-9{fill-rule:evenodd;}.cls-9{fill:#1f3694;}.cls-10{fill:url(#Degradado_sin_nombre_375);}</style><linearGradient id="Degradado_sin_nombre_3" x1="1488.8" y1="718.68" x2="1488.8" y2="449.86" gradientUnits="userSpaceOnUse"><stop offset="0" stop-color="#98681a"/><stop offset="0" stop-color="#d4d4d4"/><stop offset="0" stop-color="#fff"/><stop offset="0"/><stop offset="0" stop-color="#fff"/><stop offset="0.05" stop-color="#fff"/><stop offset="0.12" stop-color="#fff"/><stop offset="1" stop-color="#fff"/></linearGradient><linearGradient id="Degradado_sin_nombre_3-2" x1="1013.13" y1="385.05" x2="1013.13" y2="278.95" xlink:href="#Degradado_sin_nombre_3"/><linearGradient id="Degradado_sin_nombre_3-3" x1="988.88" y1="718.68" x2="988.88" y2="449.86" xlink:href="#Degradado_sin_nombre_3"/><linearGradient id="Degradado_sin_nombre_3-4" x1="470.83" y1="134.57" x2="470.83" y2="28.47" xlink:href="#Degradado_sin_nombre_3"/><linearGradient id="Degradado_sin_nombre_3-5" x1="465.73" y1="718.68" x2="465.73" y2="449.86" xlink:href="#Degradado_sin_nombre_3"/><linearGradient id="Degradado_sin_nombre_375" x1="981.66" y1="164.59" x2="966.9" y2="714.31" gradientUnits="userSpaceOnUse"><stop offset="0.13" stop-color="#26447a"/><stop offset="0.19" stop-color="#254378"/><stop offset="0.21" stop-color="#233f71"/><stop offset="0.23" stop-color="#203966"/><stop offset="0.24" stop-color="#1a2f55"/><stop offset="0.25" stop-color="#14233f"/><stop offset="0.26" stop-color="#0b1424"/><stop offset="0.27" stop-color="#010204"/><stop offset="0.27"/><stop offset="0.36" stop-color="#020305"/><stop offset="0.48" stop-color="#060b14"/><stop offset="0.6" stop-color="#0e192d"/><stop offset="0.74" stop-color="#192c50"/><stop offset="0.87" stop-color="#26457c"/><stop offset="0.88" stop-color="#27467e"/></linearGradient></defs><title>ico-jdl</title><path class="cls-1" d="M1736.1,607.31l-7.39-11.91H1467.05L1471.6,563l20.45-143.55h8.74l-9.24-31.94c-2.57-8.89-5.77-18.36-8.83-26.1-3.18-12.7-10-23-19.73-29.9a96.51,96.51,0,0,0-15.06-8.84c-4.89-2.82-11-6.38-18.31-10.62-26.84-20.43-57.17-35.38-87.75-43.24l-32.44-5.21-14.16,20.82-9,63.1a162.2,162.2,0,0,0-39.58-60.91c-24.86-23.94-58.63-36.08-100.38-36.08H546.36L522.8,415h-.39l-15.69,115A173.91,173.91,0,0,1,498.41,552a130.37,130.37,0,0,1-6.61,12.69c-2.17,3.6-4.5,7.06-6.9,10.28a64.16,64.16,0,0,1-5.61,6.54l-.26.27a64.15,64.15,0,0,1-11,8.84,30.38,30.38,0,0,1-16.95,4.83H262.88L255.37,605a361.51,361.51,0,0,0-27.47,40.41c-4.15,7.12-8,14.37-11.51,21.53-9.93,20.44-19,41.37-26.87,62.2L176.7,763h1l-1.22,3.25H505.83c40.39,0,74.14-5.92,100.34-17.6,27.11-12.15,49.09-30.13,65.33-53.44a192.11,192.11,0,0,0,10.91-17.64L670.19,763h1.15l-.46,3.25H916.11c46.74,0,88.72-4.22,124.78-12.55,37.08-8.61,70.13-22.38,98.2-40.91,28.24-18.57,53.28-42.72,74.44-71.8a442.14,442.14,0,0,0,39.57-67.17l-27,189.18h.57l-.45,3.25H1647l7.26-7c8-7.67,16.94-18.67,27.47-33.65,9.85-14,19-28,27.35-41.53,8.45-13.71,15.56-26.22,21.15-37.21,2.64-5.22,4.55-9.12,5.83-11.91C1738.41,629.8,1743.32,619.05,1736.1,607.31ZM1070.2,419.4l.75,21.52a55.54,55.54,0,0,1-1.2,13.44c-1.38,6.31-2.78,13.21-4.3,21.11l-.11.6a35.49,35.49,0,0,1-3.89,11.8,152.14,152.14,0,0,0-9.26,18.69c-3.91,9.52-11.13,19.47-21.47,29.57a206.47,206.47,0,0,1-21.23,18.08c-4.08,3-8.21,5.8-12.28,8.39-1.82,1.16-3.54,2.22-5.25,3.25A251.93,251.93,0,0,1,946,587.67,131.72,131.72,0,0,1,915,595.05L939.7,419.4Z" transform="translate(-176.52 -250.48)"/><path class="cls-1" d="M1726.47,472.37c0-.08,0-.15,0-.23l.24.15Z" transform="translate(-176.52 -250.48)"/><path class="cls-2" d="M1259,736.08h382.45c6.74-6.39,14.75-16.15,24.08-29.19s18.08-26.13,26.24-39.21,14.8-24.55,19.9-34.42,7.36-14.79,6.78-14.79H1442.31L1468,438.1H1301.62Z" transform="translate(-176.52 -250.48)"/><path class="cls-3" d="M1270.61,376.24q-9.75-44.42-39.6-73.17t-82.11-28.76h-379L753.06,391.92H1273.2a42.06,42.06,0,0,0-.85-7.82C1271.82,381.78,1271.27,379.14,1270.61,376.24Z" transform="translate(-176.52 -250.48)"/><path class="cls-4" d="M1250.36,526.1a244,244,0,0,0,24.24-88H1101.25a79.49,79.49,0,0,1-1.79,19.59c-1.47,6.7-2.86,13.51-4.22,20.48a59.44,59.44,0,0,1-6.93,20.06,127,127,0,0,0-7.89,15.68q-8,19.15-27.42,37.89a242.81,242.81,0,0,1-44,33.53,275.68,275.68,0,0,1-50.48,24q-25.9,9.18-46.8,9.18H889.05L914.8,438.1h-169l-42.62,298H920.1q68,0,119.4-11.78t90.31-37q38.93-25.26,68.09-64.88T1250.36,526.1Z" transform="translate(-176.52 -250.48)"/><polygon class="cls-5" points="379.65 141.44 544.29 141.44 562.02 23.83 396.49 23.83 379.65 141.44"/><path class="cls-6" d="M217.05,736.08h292.7q55.8,0,90.32-15.25t55.17-44.45q20.6-29.14,31.16-72.31t18.35-98.88l9.67-67.09H548.89l-13.12,95a190.58,190.58,0,0,1-10.18,27A153.6,153.6,0,0,1,509.06,588a88.06,88.06,0,0,1-23.54,21.79,55.57,55.57,0,0,1-30.32,8.71h-176A322.42,322.42,0,0,0,243,676Q228.62,705.58,217.05,736.08Z" transform="translate(-176.52 -250.48)"/><path class="cls-7" d="M1259,736.08h382.45c6.74-6.39,14.75-16.15,24.08-29.19s18.08-26.13,26.24-39.21,14.8-24.55,19.9-34.42,7.36-14.79,6.78-14.79H1442.31L1468,438.1H1301.62Z" transform="translate(-176.52 -250.48)"/><path class="cls-7" d="M1270.61,376.24q-9.75-44.42-39.6-73.17t-82.11-28.76h-379L753.06,391.92H1273.2a42.06,42.06,0,0,0-.85-7.82C1271.82,381.78,1271.27,379.14,1270.61,376.24Z" transform="translate(-176.52 -250.48)"/><path class="cls-7" d="M1250.36,526.1a244,244,0,0,0,24.24-88H1101.25a79.49,79.49,0,0,1-1.79,19.59c-1.47,6.7-2.86,13.51-4.22,20.48a59.44,59.44,0,0,1-6.93,20.06,127,127,0,0,0-7.89,15.68q-8,19.15-27.42,37.89a242.81,242.81,0,0,1-44,33.53,275.68,275.68,0,0,1-50.48,24q-25.9,9.18-46.8,9.18H889.05L914.8,438.1h-169l-42.62,298H920.1q68,0,119.4-11.78t90.31-37q38.91-25.26,68.09-64.88T1250.36,526.1Z" transform="translate(-176.52 -250.48)"/><polygon class="cls-7" points="379.65 141.44 544.29 141.44 562.02 23.83 396.49 23.83 379.65 141.44"/><path class="cls-7" d="M217.05,736.08h292.7q55.8,0,90.32-15.25t55.17-44.45q20.6-29.14,31.16-72.31t18.35-98.88l9.67-67.09H548.89l-13.12,95a190.58,190.58,0,0,1-10.18,27A153.6,153.6,0,0,1,509.06,588a88.06,88.06,0,0,1-23.54,21.79,55.57,55.57,0,0,1-30.32,8.71h-176A322.42,322.42,0,0,0,243,676Q228.62,705.58,217.05,736.08Z" transform="translate(-176.52 -250.48)"/><path class="cls-8" d="M1319.47,287.43s63.1,7.47,99.1,92.53l2.72,7.24s17.41-38.44,29.84-36.63c0,0-7.24-3.86-10.88-4.76s-7-.89-13.78-3.83-16.53-8.17-16.53-8.17-41.73-39.91-70.88-41.49l-7-5.89Z" transform="translate(-176.52 -250.48)"/><path class="cls-9" d="M1323.57,291.89s63.22-9.37,97.21,83.85c0,0,12-30.08,27.52-26.94s15.45,31,15.45,31,2.52-22.54-13.09-31.17-69-40.15-69-40.15S1354.15,289,1323.57,291.89Z" transform="translate(-176.52 -250.48)"/><path class="cls-10" d="M1323.92,287.67l-15,104.79h162.78c-4.76-16.45-12.07-35.92-16.76-40.6-6.85-6.86-26.86-14.37-26.86-14.37C1387.64,303.55,1348.38,291.73,1323.92,287.67Zm-64.84,451.66h382q10.23-9.86,24.35-30t26.54-40.3q12.4-20.12,20.12-35.37c5.14-10.15,7.44-15.2,6.86-15.2H1442.45l25.41-181.3H1301.57Zm14.41-362.72q-9.85-44.92-40-74t-83-29.08H767.21L750.15,392.46h526a42.92,42.92,0,0,0-.86-7.9C1274.72,382.21,1274.16,379.54,1273.49,376.61Zm-23.71,150.45a249.27,249.27,0,0,0,24.18-89H1100.08a80.69,80.69,0,0,1-1.76,19.63c-1.46,6.72-2.83,13.54-4.18,20.52a60,60,0,0,1-6.85,20.1,129.19,129.19,0,0,0-7.81,15.71q-7.86,19.2-27.11,38a240.39,240.39,0,0,1-43.53,33.6,271.35,271.35,0,0,1-49.93,24q-25.6,9.2-46.28,9.2H890.22L915.69,438.1H746.32L703.8,739.33H920.26q67.8,0,119.12-11.9T1129.5,690q38.82-25.53,67.94-65.59T1249.78,527.06ZM555.15,392.46H721.64l17.93-118.92H572.18ZM216.7,739.33H510q55.68,0,90.11-15.42t55-44.93q20.57-29.46,31.09-73.1t18.31-99.95l9.65-67.83H548.37l-13,95.17a193.55,193.55,0,0,1-10.07,27.07A154.31,154.31,0,0,1,509,588.27a88.15,88.15,0,0,1-23.28,21.84,54.4,54.4,0,0,1-30,8.73H279.56A331.27,331.27,0,0,0,243,677.73Q228.4,708.08,216.7,739.33Z" transform="translate(-176.52 -250.48)"/></svg>