<svg id="Capa_1" data-name="Capa 1" xmlns="http://www.w3.org/2000/svg" xmlns:xlink="http://www.w3.org/1999/xlink" viewBox="0 0 1724.56 987"><defs><style>.cls-1{fill:#fff;}.cls-2{fill:url(#Degradado_sin_nombre_7);}.cls-3{fill:url(#Degradado_sin_nombre_9);}.cls-4{fill:url(#Degradado_sin_nombre_5);}.cls-5{fill:#345597;}.cls-12,.cls-13,.cls-14,.cls-5{fill-rule:evenodd;}.cls-6{fill:url(#Degradado_sin_nombre_3);}.cls-7{fill:url(#Degradado_sin_nombre_3-2);}.cls-8{fill:url(#Degradado_sin_nombre_3-3);}.cls-9{fill:url(#Degradado_sin_nombre_3-4);}.cls-10{fill:url(#Degradado_sin_nombre_3-5);}.cls-11{fill:none;}.cls-12{fill:url(#Degradado_sin_nombre_375);}.cls-14{fill:#1f3694;}</style><linearGradient id="Degradado_sin_nombre_7" x1="1485.4" y1="373.95" x2="1607.07" y2="467.7" gradientUnits="userSpaceOnUse"><stop offset="0" stop-color="#6bbc59"/><stop offset="0.07" stop-color="#60b05d"/><stop offset="0.21" stop-color="#439068"/><stop offset="0.39" stop-color="#155c79"/><stop offset="0.46" stop-color="#004481"/></linearGradient><linearGradient id="Degradado_sin_nombre_9" x1="1588.3" y1="489.04" x2="1762.14" y2="421.3" gradientUnits="userSpaceOnUse"><stop offset="0.26" stop-color="#004481"/><stop offset="0.31" stop-color="#084d7e"/><stop offset="0.41" stop-color="#1d6576"/><stop offset="0.52" stop-color="#408c69"/><stop offset="0.64" stop-color="#6bbc59"/></linearGradient><linearGradient id="Degradado_sin_nombre_5" x1="1643.15" y1="78.39" x2="1630.37" y2="554.5" gradientUnits="userSpaceOnUse"><stop offset="0.01" stop-color="#6bbc59"/><stop offset="0.29" stop-color="#6bbc59"/><stop offset="0.34" stop-color="#6bbc59"/><stop offset="0.4" stop-color="#428e68"/><stop offset="0.48" stop-color="#13597a"/><stop offset="0.52" stop-color="#004481"/></linearGradient><linearGradient id="Degradado_sin_nombre_3" x1="1422.22" y1="621.56" x2="1422.22" y2="352.74" gradientUnits="userSpaceOnUse"><stop offset="0" stop-color="#98681a"/><stop offset="0" stop-color="#d4d4d4"/><stop offset="0" stop-color="#fff"/><stop offset="0"/><stop offset="0" stop-color="#fff"/><stop offset="0.05" stop-color="#fff"/><stop offset="0.12" stop-color="#fff"/><stop offset="1" stop-color="#fff"/></linearGradient><linearGradient id="Degradado_sin_nombre_3-2" x1="946.55" y1="287.93" x2="946.55" y2="181.83" xlink:href="#Degradado_sin_nombre_3"/><linearGradient id="Degradado_sin_nombre_3-3" x1="922.3" y1="621.56" x2="922.3" y2="352.74" xlink:href="#Degradado_sin_nombre_3"/><linearGradient id="Degradado_sin_nombre_3-4" x1="461.4" y1="246.93" x2="461.4" y2="140.83" xlink:href="#Degradado_sin_nombre_3"/><linearGradient id="Degradado_sin_nombre_3-5" x1="399.15" y1="621.56" x2="399.15" y2="352.74" xlink:href="#Degradado_sin_nombre_3"/><linearGradient id="Degradado_sin_nombre_375" x1="915.07" y1="67.47" x2="900.32" y2="617.19" gradientUnits="userSpaceOnUse"><stop offset="0.13" stop-color="#26447a"/><stop offset="0.19" stop-color="#254378"/><stop offset="0.21" stop-color="#233f71"/><stop offset="0.23" stop-color="#203966"/><stop offset="0.24" stop-color="#1a2f55"/><stop offset="0.25" stop-color="#14233f"/><stop offset="0.26" stop-color="#0b1424"/><stop offset="0.27" stop-color="#010204"/><stop offset="0.27"/><stop offset="0.36" stop-color="#020305"/><stop offset="0.48" stop-color="#060b14"/><stop offset="0.6" stop-color="#0e192d"/><stop offset="0.74" stop-color="#192c50"/><stop offset="0.87" stop-color="#26457c"/><stop offset="0.88" stop-color="#27467e"/></linearGradient></defs><title>icon-jdl-actual-v2</title><path class="cls-1" d="M1763.87,416.9a44.17,44.17,0,0,0,.8-5.35.37.37,0,0,0,0-.11l0-8.67c-.83-10.5-4.89-20.72-12.12-30.47l-5.14-6.93,1.71-2.75c12.8-20.5,26.86-45.44,34.13-75,3.55-13.77,6.38-28.68,3.4-44.72-.32-10-2.6-18.56-6.94-26.11a80.92,80.92,0,0,0-26.92-32.59l8.24-.14c2.25.89,4.47,1.75,6.64,2.59,11.72,4.55,21.84,8.47,29.94,15l46.27,37.21-14.33-57.62c-6.63-26.68-40.15-65.92-73.42-76.52l-2.66-.81,62.53-12.4L1741.74,68c-28.71-9.08-54-8.39-77.41,2.12C1653.46,75,1645.42,106.18,1638,115c-7-18-25-57-67-74,0,0,16.85,47.31,26,56-1-.12-30-27-82-2.13l-72.5,36.63,42.77.64c-15.93,12.19-27.17,27.59-35.78,41.11l-42.38,66.52,69-38.29c8.18-4.54,18-7.2,28.38-10,2.23-.6,4.51-1.22,6.82-1.87a89.56,89.56,0,0,0-18,19.35c-14.44,20.81-18.66,43.14-19,62.6l-3.17,1.29c-13,5.28-22.95,13-29.75,23l-9.54.29,6.78,4.18c-.45.83-.9,1.68-1.32,2.54a50.1,50.1,0,0,0-3,7.83c-1.6-.29-3.25-.51-4.93-.66l-6.89-23.86c-2.58-8.92-5.75-18.28-8.8-26-2.86-11.71-9-21.14-17.89-27.38a92,92,0,0,0-14.47-8.47c-5-2.9-11.34-6.55-18.75-10.87-26.12-19.93-55.42-34.48-85.11-42.28l-7.31-6.1-20.69,1.65L1249,186.6l-13.45-1.93-11.91,83.09c-7.7-32-22.75-59.06-44.8-80.3-23.9-23-56.5-34.68-96.91-34.68H486.34L463.59,311.7H1391.8l-75,4.7h-101.1l-.13.94H1010.87l.73,20.71a61.25,61.25,0,0,1-1.33,14.73c-1.37,6.29-2.76,13.14-4.26,20.93l-.09.48a40.5,40.5,0,0,1-4.48,13.46,147.42,147.42,0,0,0-9,18.12c-4.17,10.16-11.76,20.65-22.58,31.22a210.33,210.33,0,0,1-21.8,18.57c-4.15,3-8.36,5.9-12.53,8.56-1.87,1.19-3.62,2.27-5.35,3.31a257.06,257.06,0,0,1-46.86,22.25c-14.36,5.09-27.31,7.78-38.53,8l25.41-180.36H462.42L447.27,428.41a177.63,177.63,0,0,1-8.66,22.92,136.26,136.26,0,0,1-6.89,13.23c-2.25,3.72-4.67,7.31-7.17,10.66a70.92,70.92,0,0,1-6.05,7.06l-.22.23a68.48,68.48,0,0,1-11.95,9.59,35.61,35.61,0,0,1-19.62,5.61H201l-6,7.69a359.13,359.13,0,0,0-25.05,36.39c-4.87,8.13-9.37,16.42-13.37,24.66-9.87,20.29-18.85,41.08-26.69,61.78l-10.26,27.09h1l-1.21,3.25H397.19A591.37,591.37,0,0,0,556.07,882.11c71.87,62.87,158.31,107.66,250,129.52A596,596,0,0,0,1197,972a581.14,581.14,0,0,0,160.15-110.62,562.53,562.53,0,0,0,115.32-160.93c5.11-10.77,12-25.86,18.62-41.85h89.49l5.81-5.6c7.72-7.44,16.49-18.2,26.85-32.92,9.79-14,18.94-27.86,27.18-41.28,8.37-13.58,15.41-26,21-36.84,1.42-2.82,2.63-5.25,3.64-7.31l25.33-5.5c6.17-1.34,24-16,31.62-20.12l-20.59,71.21,49.13-62S1752,512,1752,512l5,44s22-78,6-105l49,21S1793,427,1763.87,416.9ZM1057.61,890.81c-124.09,28.57-271.42-.53-375.35-74.15-87.81-62.17-128.1-127.9-150.59-171.92q4.17-1.59,8.11-3.34c26.26-11.77,47.55-29.18,63.27-51.73a212.29,212.29,0,0,0,25-49.35l-16.45,115h1.14l-.46,3.25H851.76c46.37,0,88-4.18,123.65-12.42,36.5-8.47,69-22,96.58-40.22,27.73-18.24,52.34-42,73.14-70.56,15.94-22,30.77-47.87,44.1-77,3.25-7,6.42-14.18,9.45-21.4l-31.21,218.35h.56l-.46,3.25h205.86C1306.39,774.39,1190.5,860.17,1057.61,890.81ZM1397,497.7l.72-5.15L1420.46,434c5.1,11.3,12.87,19.65,19.17,25.61L1480,497.7Zm95.75,0-20.43-59.18a34.75,34.75,0,0,1-1.27-9.13c8.48,4.71,18.17,7.19,29.37,7.51a200.68,200.68,0,0,1,17.22,60.8Zm38.51-221.77q1.95-2.52,4-5.17l6.24-4-.15,2.88,15.94-10.72a74.22,74.22,0,0,0,1.5,12.21,94.35,94.35,0,0,0,16.55,37l-25.69-18.89c-5.3-3.9-13-7.09-21.67-9Zm18.38,143.65a254.75,254.75,0,0,0-14.44-25.3l3.46,1.15c1.62,2.41,3.11,4.86,4.45,7.12l11.79,19.86Zm11.57,26.68q-1.7-4.54-3.53-9l6.06,0,1.19,2Q1563.05,442.81,1561.16,446.26Zm20.73-43.3-1.8-13.31c-1.61-11.78-4.36-27.19-11.52-42-3.22-6.83-7.49-14.56-14.8-20.86-.53-.58-1.06-1.13-1.61-1.67l37.61-.59q3.23,3.06,6.77,6l6.67,5.62A424.91,424.91,0,0,1,1581.89,403Zm91.45,91.24-9.18,7.64-2.56-4.14h-22a166.73,166.73,0,0,1,15.63-12.13,59.42,59.42,0,0,0,20,6.69A14.57,14.57,0,0,1,1673.34,494.2Zm42.49-182.27v1.41c0,3-.07,6-.25,9.05l-9.38-12.65L1712,352l-.26,1.62c-8.29-3.59-16.92-5.58-24-5.58-1,0-2,.05-3,.14L1665.11,350a475.05,475.05,0,0,0,6.27-121.89c3.26,2.17,6.54,4.55,9.87,7.14l8.86,6.9a75.34,75.34,0,0,0,7.54,11.57c1,1.34,1.95,2.6,2.71,3.73l7,10.38a129.79,129.79,0,0,0,4.56,15.58l4.13,11.49C1715.77,300.66,1715.8,306.33,1715.83,311.93Z" transform="translate(-119.38 -41)"/><path class="cls-1" d="M1659.88,375.25c0-.08,0-.14.06-.23l.23.15Z" transform="translate(-119.38 -41)"/><path class="cls-2" d="M1485.4,405.26c1-1.25,2.18.7,3-.55a31.72,31.72,0,0,0-9.53-11.69c3.73,1.19,3.81-.16,2.82-2.78a89.14,89.14,0,0,1-4.82-19.48,160.73,160.73,0,0,1,18.66,20.48c28.08,36.66,42.62,78.25,45.35,124.21.16,2.74.26,5.47.32,8.2,6.8-.39,13.43-1,20-1.32-10.08-61.76-32.3-116.67-80.37-159.18a71,71,0,0,1,25.24-5c.17-1.9-2-2.07-1.91-3.85,3.34,1,6.11,3.43,9.68,3.42,2.87,1.94,6.25,2.26,9.47,3.21,1.14-2.13-1.93-3.9-.23-5.88A52.25,52.25,0,0,0,1538,368c.38-2.61-.12-4.61-.13-6.9l2.73,4c2.77,5.64,6.81,10.36,10.8,15.12A116.92,116.92,0,0,1,1562.18,396c-1.69-12.47-4.21-24.66-9.74-36-2.67-5.67-5.66-11.12-10.72-15.09a17.58,17.58,0,0,0-7.76-5.69c-11.11-5.54-21.89-3.09-32.56,1.4a88.13,88.13,0,0,0-17.18,10c3.63-7.18,8.08-12.52,12.69-18.56l-6.42.5c6.38-3.94,13.09-7.27,19-12.36-2.32-1.66-5.24-.44-8.53-2.47,14.14-.44,25.4-8.48,38.66-8.68-8.17-6-29.58-9.76-42.14-4.68-14.9,6-21.7,18.5-25.86,33.12-1.47-1.11-.88-2.49-1-3.64-.32-3.21-.24-3.22-3.58-1.75a39.38,39.38,0,0,0,4.31-13.12c.41-3.09-1.2-1.5-3-1.27,5.58-7.08,6.71-15.92,12.19-22.67-10.13,4.13-18.53,10.3-23.41,20.27-5.13,10.46-3.05,20.75,2.64,31.5-11.68-7.33-22.44-14.13-35.93-13.28,10.9,2.3,19.82,8.26,28.33,15.14-9.08-3-18-3.57-26.47,1.58-8,4.85-13.18,12.1-16.92,20.72,6.32-5.09,14.51-6.39,21.09-11.08-.06,3.33,5.23,2.72,13.39-1.38,1.25,1.31-1.43,1.54-.29,3.07l8.56.5c-14.7,1.11-28.16,4.42-36.56,17.9-6.89,11.05-7.21,23.32-5.62,35.91,4.35-11.17,13.75-19.15,18.11-31.07.78,3-.11,5-.3,7.61,6.8-4,11.58-9.5,17.16-15.41l-3,7.13c5.61-1.88,10.64-4.41,17-5.7-12.73,10-22.68,20.78-21.23,37.57,1.17,13.45,8.62,23.66,18.18,32.7-4-11.7-.93-24.31-4.89-36l4.24,6.65a79.92,79.92,0,0,0,3.44-21.55c1.65,1.3,1,3.44,2.46,5.35,1.78-6.05,3.37-11.68,6.91-17.89-.31,11.14,1.89,20.34,10.13,26.93,7.77,6.22,16.92,8.37,26.82,8.44C1497.07,416.64,1492.75,409.18,1485.4,405.26Z" transform="translate(-119.38 -41)"/><path class="cls-3" d="M1685.29,467.48c-.17-1.37-1.92-.45-2-1.74a27.41,27.41,0,0,1,12.31-4.4c-3.3-.79-2.74-1.83-.83-3.33a78.11,78.11,0,0,0,12.33-12.29,139.78,139.78,0,0,0-23,6.83c-37.26,14.61-66.72,38.94-89.41,71.82-1.35,2-2.65,3.94-3.92,5.93-4.86-3.33-9.49-6.77-14.24-10,35.23-41.3,76.36-72.07,131-82.05a61,61,0,0,0-16.42-15.06c.74-1.48,2.42-.64,3.15-2-2.91-.76-6.06-.2-8.7-1.8-3,.15-5.64-1.13-8.45-1.86.12-2.1,3.18-2,2.82-4.26a45.41,45.41,0,0,1-16.88,3c.9-2.1,2.17-3.36,3.2-5l-3.81,1.72c-4.58,2.94-9.69,4.63-14.78,6.37a101.37,101.37,0,0,0-15.06,6.86c6.85-8.49,14.19-16.41,23.41-22.37,4.53-3,9.19-5.71,14.72-6.39a15.16,15.16,0,0,1,8.3-.74c10.71.87,17.59,7.52,23.46,15.64a76.14,76.14,0,0,1,8.2,15.14c.54-7-.35-12.92-1-19.46l4.52,3.25c-3-5.79-6.41-11.27-8.5-17.69,2.47-.2,4.09,2,7.43,2-10.27-6.67-15-17.68-24.7-23.79,8.75-.79,26.28,6,33.28,15.44,8.31,11.16,7.74,23.46,4.24,36.17,1.59-.17,1.77-1.46,2.37-2.26,1.68-2.24,1.63-2.28,3.43.3a34.36,34.36,0,0,1,2.72-11.66c1.08-2.48,1.56-.57,2.78.4-.94-7.76,2.2-14.82,1.18-22.28,5.64,7.6,9.08,15.95,8.21,25.53-.92,10.06-7.09,16.76-16.13,22.19,11.94-.2,23-.42,32.56,6.26-9.1-3.18-18.38-2.76-27.77-1.47,8.07,1.83,14.9,5.41,18.87,13,3.73,7.19,4.31,14.89,3.2,23-2.39-6.62-7.86-11.26-10.62-17.68-1.45,2.49-5.09-.33-9.28-7-1.52.42.36,1.79-1.17,2.42l-6.56-3.48c10.38,7.42,18.85,15.91,19,29.68.12,11.29-5.15,20.53-12,29.16,1.8-10.23-1.57-20.37.58-31.17-1.94,1.89-2.18,3.77-3.2,5.78-3.24-6-4.3-12.24-5.77-19.13-.38,2.55-.64,4.38-1,6.64-3.3-3.9-5.88-8-10-11.85,4.93,13.11,7.44,25.59-1.19,37.39-6.91,9.46-17,13.7-28.15,16.11,8.25-6.86,11.62-17.62,19.82-24.54l-6.12,3a69,69,0,0,1,7.14-17.53c-1.8.23-2.32,2.08-4.23,2.86,1.41-5.28,2.76-10.17,2.93-16.37-4.77,8.41-10.54,14.25-19.6,15.44-8.54,1.13-16.29-1.38-23.64-5.77C1671.54,470.69,1678.09,467.1,1685.29,467.48Z" transform="translate(-119.38 -41)"/><path class="cls-4" d="M1601.47,270.14c3.18-.68,2.51,3.92,5.4,3a64.68,64.68,0,0,0,.28-30.78c4.31,6.73,6.19,4.71,8-.69,4.23-12.34,10-24,17.84-36.89a330.12,330.12,0,0,1,2.6,56.51c-3.71,94.18-35.11,178.45-90.75,254.17-3.31,4.51-6.71,8.92-10.18,13.29,11.17,8.25,22.41,15.93,33.2,24.06,64.7-110.11,101.41-225.3,81.35-354.73,17.59,5.49,32.44,14.29,46.2,25,2.74-2.78-.44-5.87,2-8.55,4,5.91,5.13,13.36,10.74,18,2,6.78,6.86,11.7,10.67,17.39,4.58-1.86,2.06-8.64,7.31-9.54a107,107,0,0,0,6.42,39.86c4-3.61,5.81-7.4,8.78-11-.29,3.26-.59,6.52-.88,9.79-3,12.46-2.83,25.14-2.76,37.82.06,13-1.56,25.82-3.62,38.79,13.59-21.77,25.54-44.19,31.69-69.29,3.21-12.39,5.61-24.83,2.84-37.67,0-6.73-1.17-13.2-4.76-19-10.23-23.19-30.34-33.41-53-40.27-12.28-3.72-24.92-5.57-40-6.66,15.06-6.53,29-9.13,44.11-12.6l-10.72-7.57c15.16,2.12,30,5.64,46,5.36-1.47-5.65-7.66-7.55-10.18-15,22.78,17.76,50.94,19.81,72,36.79-5-20.09-33.74-53.9-60.08-62.29-31.26-10-58.2.75-83.78,18.29-.87-3.68,1.85-5.08,3.17-7,3.7-5.45,3.82-5.37-3.31-7.41a80.1,80.1,0,0,0,23.85-15c4.68-4.31.08-3.91-3-5.89,18-3.85,31.29-16.25,48.69-19.7-21.28-6.73-42.53-8-63.18,1.29-21.69,9.75-31.84,28.62-36.93,52.92-8.78-26.75-16.82-51.45-39.11-67.71,14.12,17.83,20.36,38.82,24.75,60.72-10.32-16.58-23.57-29-43.63-32-18.88-2.81-36.46,1.81-53.59,10.47,16.57.25,31.13,8.89,47.57,10.09-4.43,5.15,4.66,11.1,22.83,15.29.25,3.68-4.26.56-4.47,4.45l12.81,11.95c-24.54-17.44-50-29.78-80.75-19.57-25.23,8.38-41.73,27.22-55.65,49.06,21.38-11.86,46.56-12.14,69-25.18-2.72,5.77-6.72,7.74-10.4,11.56,15.88,2.6,30.57.18,47-1.82l-14,7.26c11.24,4.37,22.45,7,34.13,13.23-33-.92-62.71,3.06-82.32,31.32-15.71,22.65-17.32,48.39-14.09,75,8.91-23.63,30.24-39.39,39.32-63-.62,4.86-1.23,9.73-2,15.95,13.35-8.62,23.72-18.42,33.5-29.34.88,4.19-2.85,6.76-3.11,11.61,10.67-7.18,20.51-13.95,34.17-19.08-15,17.07-23.55,34.39-19.21,55.49,4.1,19.89,15.66,35.21,31.12,48.22C1605,303.21,1607.9,285.86,1601.47,270.14Z" transform="translate(-119.38 -41)"/><path class="cls-5" d="M1413.62,631.76c-66.63,145-200,247.69-349.61,282.18-142.24,32.75-292.25-7.09-391.4-77.31C566.82,761.72,527.18,682,502.51,630.41l-53.57.23c4.26,12.38,10.29,24.19,15.75,35l43,75.06c13.39,9.34,84.86,126.91,244,187.69,164.8,62.94,372,43.82,514.07-65.54,83.73-64.46,144.82-139.25,181.44-231.12Z" transform="translate(-119.38 -41)"/><path class="cls-5" d="M499.18,743.79c-6.3-4.75-1.31.55-7.43-7.51l-38.21-72.89c-4.8-10.76-9.13-21.64-13.12-32.71l-31.78.15c65.3,186.25,221.86,321.55,404,365,261.78,62.4,531.3-64.5,643.75-300.34,6.86-14.44,18.48-39.8,27-63.72h-4.1c-169,415.85-673.8,474.85-937.17,172.31L508.24,761.3c-5.69-7.21-1.08.88-5.84-8.1C499.18,747.2,500.23,750.41,499.18,743.79Z" transform="translate(-119.38 -41)"/><path class="cls-6" d="M1192.45,639h382.44q10.11-9.59,24.09-29.19t26.24-39.21q12.27-19.57,19.9-34.42c5.07-9.87,7.35-14.79,6.78-14.79H1375.72L1401.42,341H1235Z" transform="translate(-119.38 -41)"/><path class="cls-7" d="M1204,279.12q-9.75-44.42-39.6-73.17t-82.11-28.76H703.36L686.48,294.8h520.14a43,43,0,0,0-.85-7.82C1205.23,284.66,1204.69,282,1204,279.12Z" transform="translate(-119.38 -41)"/><path class="cls-8" d="M1183.78,429A244.19,244.19,0,0,0,1208,341H1034.66a79.55,79.55,0,0,1-1.78,19.6c-1.48,6.7-2.86,13.5-4.22,20.47a59.44,59.44,0,0,1-6.93,20.06,129.4,129.4,0,0,0-7.9,15.68q-8,19.15-27.41,37.9a243.22,243.22,0,0,1-44,33.52,276.16,276.16,0,0,1-50.49,24q-25.89,9.17-46.79,9.17H822.47L848.22,341h-169L636.58,639H853.52q68,0,119.39-11.77t90.32-37.05q38.91-25.26,68.09-64.88T1183.78,429Z" transform="translate(-119.38 -41)"/><polygon class="cls-9" points="370.21 253.8 534.85 253.8 552.58 136.19 387.05 136.19 370.21 253.8"/><path class="cls-10" d="M150.46,639H443.17q55.8,0,90.31-15.25t55.17-44.45q20.61-29.13,31.16-72.31t18.36-98.87l9.67-67.1H482.3l-13.12,95A190.58,190.58,0,0,1,459,463a152.46,152.46,0,0,1-16.53,27.88,88.17,88.17,0,0,1-23.53,21.79,55.57,55.57,0,0,1-30.32,8.71h-176a322.78,322.78,0,0,0-36.19,57.48Q162,608.47,150.46,639Z" transform="translate(-119.38 -41)"/><path class="cls-11" d="M1192.45,639h382.44q10.11-9.59,24.09-29.19t26.24-39.21q12.27-19.57,19.9-34.42c5.07-9.87,7.35-14.79,6.78-14.79H1375.72L1401.42,341H1235Z" transform="translate(-119.38 -41)"/><path class="cls-11" d="M1204,279.12q-9.75-44.42-39.6-73.17t-82.11-28.76H703.36L686.48,294.8h520.14a43,43,0,0,0-.85-7.82C1205.23,284.66,1204.69,282,1204,279.12Z" transform="translate(-119.38 -41)"/><path class="cls-11" d="M1183.78,429A244.19,244.19,0,0,0,1208,341H1034.66a79.55,79.55,0,0,1-1.78,19.6c-1.48,6.7-2.86,13.5-4.22,20.47a59.44,59.44,0,0,1-6.93,20.06,129.4,129.4,0,0,0-7.9,15.68q-8,19.15-27.41,37.9a243.22,243.22,0,0,1-44,33.52,276.16,276.16,0,0,1-50.49,24q-25.89,9.17-46.79,9.17H822.47L848.22,341h-169L636.58,639H853.52q68,0,119.39-11.77t90.32-37.05q38.91-25.26,68.09-64.88T1183.78,429Z" transform="translate(-119.38 -41)"/><polygon class="cls-11" points="370.21 253.8 534.85 253.8 552.58 136.19 387.05 136.19 370.21 253.8"/><path class="cls-11" d="M150.46,639H443.17q55.8,0,90.31-15.25t55.17-44.45q20.61-29.13,31.16-72.31t18.36-98.87l9.67-67.1H482.3l-13.12,95A190.58,190.58,0,0,1,459,463a152.46,152.46,0,0,1-16.53,27.88,88.17,88.17,0,0,1-23.53,21.79,55.57,55.57,0,0,1-30.32,8.71h-176a322.78,322.78,0,0,0-36.19,57.48Q162,608.47,150.46,639Z" transform="translate(-119.38 -41)"/><path class="cls-12" d="M1257.33,190.55l-15,104.8H1405.1c-4.76-16.46-12.07-35.93-16.76-40.61-6.85-6.86-26.87-14.37-26.87-14.37C1321.06,206.43,1281.8,194.62,1257.33,190.55ZM1192.5,642.21h382q10.21-9.86,24.35-30t26.54-40.31q12.4-20.11,20.12-35.37c5.13-10.15,7.44-15.2,6.86-15.2H1375.86L1401.28,340H1235Zm14.41-362.72q-9.86-44.91-40.05-74t-83-29.08H700.63L683.56,295.35h526a43.77,43.77,0,0,0-.87-7.91C1208.13,285.09,1207.58,282.43,1206.91,279.49Zm-23.72,150.45a249,249,0,0,0,24.19-89H1033.5a81.32,81.32,0,0,1-1.76,19.64c-1.47,6.71-2.84,13.53-4.18,20.51a60,60,0,0,1-6.85,20.1,129.19,129.19,0,0,0-7.81,15.71q-7.87,19.2-27.11,38a241.14,241.14,0,0,1-43.53,33.59,271,271,0,0,1-49.93,24q-25.62,9.19-46.29,9.2h-22.4L849.1,341H679.74L637.22,642.21H853.67q67.8,0,119.13-11.9t90.11-37.45q38.83-25.53,67.95-65.59T1183.19,429.94ZM488.57,295.35H655.05L673,176.42H505.59ZM150.11,642.21H443.4q55.68,0,90.11-15.42t55-44.93q20.55-29.46,31.09-73.1T638,408.81L647.61,341H481.79l-13,95.17a192.15,192.15,0,0,1-10.06,27.07,154.31,154.31,0,0,1-16.35,27.93A88.3,88.3,0,0,1,419.12,513a54.45,54.45,0,0,1-30,8.73H213a331.27,331.27,0,0,0-36.6,58.89Q161.82,611,150.11,642.21Z" transform="translate(-119.38 -41)"/><path class="cls-13" d="M1252.88,190.31s63.1,7.48,99.11,92.53l2.71,7.24s17.42-38.44,29.84-36.63c0,0-7.23-3.86-10.87-4.75s-7-.9-13.78-3.84-16.53-8.16-16.53-8.16-41.74-39.91-70.88-41.5l-7-5.89Z" transform="translate(-119.38 -41)"/><path class="cls-14" d="M1257,194.77s63.21-9.37,97.21,83.86c0,0,12-30.09,27.52-26.95s15.45,31,15.45,31,2.52-22.54-13.09-31.17-69-40.15-69-40.15S1287.57,191.91,1257,194.77Z" transform="translate(-119.38 -41)"/></svg>