<svg id="Capa_1" data-name="Capa 1" xmlns="http://www.w3.org/2000/svg" viewBox="0 0 1218.96 1051.76"><defs><style>.cls-1{fill:#eeecee;}.cls-2{fill:#d6cfd5;}.cls-3{fill:#b4acb5;}.cls-4{fill:#fcd202;}.cls-5{fill:#89c8fc;}.cls-6{fill:#edebed;}.cls-7{fill:#ace093;}.cls-8{fill:#fdfdfd;}.cls-9{fill:#7fd161;}.cls-10{fill:#d4ced3;}.cls-11{fill:#5fb5fd;}.cls-12{fill:#9a8d98;}.cls-13{fill:#d5ced4;}.cls-14{fill:#89c7fc;}.cls-15{fill:#89c7fb;}.cls-16{fill:#60b6fd;}.cls-17{fill:#89c8fd;}</style></defs><title>no_sucursal</title><path d="M67,962.09c9.36-24.45,27.49-33.39,53-32.24s25.64.24,25.64-25.6c0-16.26-.28-32.53.15-48.78.16-6.15-1.77-10.11-6.51-14-18.62-15.43-36.88-31.3-55.22-47-15.64-13.43-18.18-24.5-9.56-43,20-43,40.35-85.84,60.17-128.92,5.82-12.65,14.38-21.14,28.61-21.35,14.83-.22,23.8,8.5,29.69,21.57,9.48,21.08,19.49,41.92,31.66,62.57V673q0-192.75,0-385.49c0-35.2,15.41-50.48,50.82-50.51,7.94,0,15.88.29,23.8-.06,10.59-.47,18.59,3,22.73,13.31,3.66,14.89-1.57,22.94-16.44,24.75-9.46,1.15-19,.45-28.52.59-8.74.13-13.29,3.9-13.25,12.9,0,4-.13,7.92-.13,11.89q0,302.11.05,604.23c0,6.64-1.27,13.54,2.43,19.72,2.91,3.44,6.86,3.47,10.9,3.48,43.63.1,87.26,0,130.89-.42,13-.14,14.42-1.76,14.81-14.35.19-6.34.15-12.69,0-19-.25-12.94-1.08-13.7-14.65-13.91-11.9-.19-23.8.3-35.7-.25-9.51.23-19,.49-28.52-.12-27.3-1.74-45.93-18.9-46.64-46-1.36-51.48-1.16-103-.06-154.51.47-22.58,13.35-37,35.36-43.79,12.43-1.24,25,1,37.39-1.46a25.42,25.42,0,0,1,4-.92c12.25-1.16,24.55-.67,36.82-.55,8.35.09,12.46-2.79,12.22-11.7-.35-12.67-.42-25.37,0-38,.32-9.5-4.07-12.47-12.88-12.37-11.87.15-23.77.65-35.65-.49a25.4,25.4,0,0,1-4.06-.82c-12.39-2.81-25-.3-37.47-1.54-22-6.58-35.41-21.93-35.83-44.66-1-51-1.15-102,.05-153,.66-27.68,19.27-45.07,47.06-46.73,9.08-.54,18.19-.37,27.27-.09,12.65-.3,25.32-.37,38,0,9.35.26,13.72-2.81,13.55-12.87-.66-40.37,4.37-34.27-33.4-34.9-5.91-.1-11.93.28-17.33-2.94-5.08-4.64-11-8.9-8-17.28,4.34-14.75,8.29-17.82,23.55-18,9.52-.09,19.09-.6,28.55.16,8.3.66,9.78-2.71,9.75-10.18-.28-54.74-.18-109.49-.14-164.23,0-33.3,15.27-48.5,48.74-48.5q201.71,0,403.42,0c33.43,0,48.68,15.22,48.71,48.55,0,54.34.21,108.69-.2,163-.06,8.72,1.85,11.48,11,11.38,47.59-.49,95.2-.27,142.8-.21,31.25,0,47.62,16.44,47.72,47.68.06,20.63.11,41.26,0,61.88-.09,14.82-4,19.55-18.38,23.12-11.73,1.41-19.17-5-20-18.44-1.09-17-.32-34-.39-51.05-.09-24.83,0-24.68-25.25-24.88q-58.79-.46-117.55-.28c-4.67,0-9.6-.93-13.58,2.62-5.83,12.93-3,26.39-2,39.57.48,6.26,6.94,5.47,11.51,5.53,19.78.26,39.56.16,59.35.09,13.84-.05,26.69,2.84,37.84,11.51,11.26,10.23,16.24,23.32,16.34,38.16q.53,73.65,0,147.29c-.09,15.84-5.8,29.36-18.49,39.46-11.58,8.91-25.19,10.93-39.21,11.14-18.18.28-36.37-.09-54.56.14-12.44.16-13.58,1.35-13.75,13.64-.17,11.86.27,23.73-.13,35.58-.31,9.23,3.69,12.7,12.66,12.6,19.37-.19,38.75-.13,58.12,0,13.36.08,25.91,2.85,36.8,11.12,13.43,10.72,18.65,25.11,18.66,41.83q.06,71.28,0,142.58c0,15.69-4.42,29.68-16.43,40.55-11.11,8.59-23.9,11.62-37.72,11.52-15-.1-30-.06-45,0-30.36.12-26.84-2.43-26.94,27.66,0,6.12-1.68,12.79,3.63,17.9,4.28,3.07,9.18,2.22,13.87,2.23q59.51.18,119-.4c22.54-.23,22.67-.15,22.67-22.34q0-229.69,0-459.4c0-6.34-.44-12.73.83-19,2.26-11.13,9.08-16.19,19.74-14.9,14.73,3.55,18.39,8.21,18.4,24.27q.06,118.43,0,236.83v12.36l2.3.39c9.49-20.18,19.42-40.16,28.34-60.59,6-13.84,14.5-24,30.54-23.9s24,10.87,30.25,24.45c19.06,41.71,38.79,83.11,58.19,124.65,9.27,19.85,6.93,30.49-9.88,45-18,15.52-36.08,31-54.32,46.3-4.18,3.51-6.7,6.84-6.6,12.8.4,22.61.35,45.23,0,67.84-.09,6.09,1.49,8.67,7.92,8.13,5.91-.5,11.93.32,17.84-.18,25.54-2.17,43.65,7.66,53,32.06v69c-5.88,23.41-19.38,34.18-44.08,34.68-17.83.36-35.68.1-53.52.1H432c-6.34,0-12.69.27-19-.33-13.39-1.28-19.18-6.58-22.48-20.28,2.61-15.12,8.31-20.67,23.06-22.36a125.73,125.73,0,0,1,14.26-.44h755.47a75.92,75.92,0,0,1,10.67.35c13-.26,26,.17,39-.17,12-.32,13.37-1.8,13.6-14,.17-9.07,0-18.15,0-27.23,0-7.39-3.55-10.71-10.84-10.85-13.81-.25-27.63.17-41.45-.21-4.76.65-9.52.35-14.28.35H132.84c-26.26,0-26.33,0-26.25,25.84.08,27.07-1.92,25.93,25.88,26q91.64.06,183.26,0c5.55,0,11.12-.24,16.64.53,14,1.93,20.39,9.3,21,23.89-4.58,14.2-10.28,18.58-26.17,18.71-34.83.31-69.67.1-104.5.11-36.82,0-73.63-.06-110.44,0-13.7,0-25.44-3.85-35.52-13.62-6.19-6-7.6-13.53-9.75-21Z" transform="translate(-67 -14.24)"/><path class="cls-1" d="M371.72,326.33c-9.49.18-19,.23-28.47.56-24.41.85-42.11,17.8-42.33,42.21-.47,51.5-.38,103,0,154.49.14,20.7,11.1,33.74,32.77,41.41,12.71,2.14,25.64-.78,38.35,1.62l-.09,0c2.6,3.25,3.44,7.08,3.5,11.11q.4,23.71,0,47.43c-.06,4-.9,7.86-3.5,11.11l.09,0c-12.72,2.38-25.65-.5-38.38,1.6-23.38,8.19-32.83,21.32-32.86,46.15q-.09,72.48,0,145c0,30.06,17,46.85,47.22,47.06,7.9.06,15.81.34,23.71.52,7.27,15.57,3.58,31.77,2.61,47.77-.21,3.41-2.73,5.65-6.55,5.59-35.21-.53-70.46,1.43-105.66-1-3.52-3.26-1.65-7.47-1.65-11.16q-.17-314.53-.09-629.08c0-15.82,0-15.82,15.84-15.86,7.53,0,15.06.08,22.59,0,17.58-.25,22.64-5.18,23.21-22.44,3.14,5.18,8.18,4.88,13.29,4.8,9.68-.14,19.36,0,29-.06.86,5.62,3.72,10.23,7.34,14.45A90.47,90.47,0,0,1,371.72,326.33Z" transform="translate(-67 -14.24)"/><path class="cls-2" d="M1038.1,865.83C1048.53,855,1052.46,842,1052.34,827q-.57-70.66,0-141.32c.14-16-4.42-29.43-16.23-40.28a559.22,559.22,0,0,1,0-88c12.27-11.14,16.45-25.08,16.28-41.47q-.7-69.48,0-139c.14-15.41-3.5-28.83-14.25-40.05-6.34-11.57-3.13-24.12-3.4-36.21-.51-22.84-.15-22.84-22.58-22.85-22.6,0-45.2.1-67.8-.08-5.45,0-11.24.71-15.68-3.79,3.07-2.78,6.82-1.44,10.22-1.44,46.39,0,92.79.41,139.17-.08,11.63-.12,15.23,3.68,14.77,15.08-.8,19.8.08,39.65-.33,59.47-.25,12.59,4.51,20.55,17.39,22.69v42c-14.68,4.18-17.27,7.82-17.27,25q0,239.46.3,478.91c0,12.27-3.2,15-15,14.79-45.94-.65-91.89-.1-137.84-.15-3.79,0-7.92,1.47-11.4-1.43,4.83-4.76,11.05-3.76,16.88-3.8,24.19-.17,48.39,0,72.58-.09,16-.06,16.35-.51,16.45-16.94,0-9.12,0-18.24,0-27.36C1034.58,875.41,1035.18,870.35,1038.1,865.83Z" transform="translate(-67 -14.24)"/><path class="cls-1" d="M793.15,774.37c26.44-4.39,39.53-19.56,39.82-46.21.06-5.16.18-10.33-.05-15.48-1.07-24.78-17.52-41.2-42.33-42.34-3.17-.15-6.35,0-9.52,0H572.75c-38.3,0-52.8,14.68-52.76,53.41,0,3.57-.15,7.16.15,10.7,1.93,22.1,16.66,37.47,38.83,39.38,6.32.54,7.79,2.36,7.76,8.36q-.35,69.63,0,139.27c0,6.72-1.89,8.88-8.67,8.81-29.36-.31-58.72-.26-88.08,0-5.87,0-9.17-1.2-8.3-7.81a56.5,56.5,0,0,0,0-7.13V67.71c0-17.74,0-17.75,17.15-17.75q173.21,0,346.4,0c4.35,0,8.7.32,13.05.49,5.79,17.72,6.6,35.38-.53,53a9.66,9.66,0,0,1-6.89,1.09c-25.87-5.78-52.1-2.38-78.16-3.07-27.62-.73-48.45,14.9-46.79,46.71,1,20.15.06,40.39.23,60.59.23,25,13.74,41,38.72,42,27.6,1.12,55.4,3.27,82.92-2,3.13-.6,6.26-1,9.36.27,7.58,12.54,7.15,25.15.35,37.82-6.3,2.58-12.46,0-18.68-.6-25.65-2.61-51.39-3.15-76.93.09-23.86,3-35.51,17.11-35.73,40.92q-.3,32.64,0,65.29c.24,25.1,15.2,41.72,40.1,41.84,28.38.12,57,3.4,85.17-2.69a9.7,9.7,0,0,1,5.82.72c7.83,12,6.68,31.28-2.27,38.91-28.85-1.6-57.73-.95-86.61-.91-28.42,0-42.1,13.89-42.21,42.35-.08,21.38-.21,42.77,0,64.15.31,25.28,15.52,41.12,40.83,40.93,28.83-.22,57.79,2.75,86.49-2.45a7.28,7.28,0,0,1,4.58,1c4.45,4.42,4,10.17,4,15.65q.17,140.82,0,281.66c0,15.27-1.25,16.34-16.12,16.08-12.63-.23-25.3,1.21-37.87-.91l.05,0c-2.19-9.39-.87-18.92-.92-28.38-.19-38.06-.1-76.12-.06-114.18C787.25,781.51,785.55,775.61,793.15,774.37Z" transform="translate(-67 -14.24)"/><path class="cls-3" d="M393.12,1045.44c-14.17.83-28.62-3.25-42.51,2.44-.76-15.59-6.36-21.16-22.06-21.18-70.63-.07-141.25-.24-211.88.18-10.94.07-15-3-14.16-14.17.89-12.23.43-24.59.11-36.88-.18-7.19,2.87-10.24,9.86-9.94,3.17.13,6.35,0,9.52,0q530.28,0,1060.55,0c4.35,0,8.69.4,13,.61,8.81,19.92,8.4,39.81-.13,59.69-5.15.15-10.29.44-15.44.44q-380.25,0-760.51,0C401.24,1026.67,397,1029.71,393.12,1045.44Z" transform="translate(-67 -14.24)"/><path class="cls-2" d="M833.64,469.26c2.45-.57,4.81-1.54,4.54-4.5-.93-10.41,3.08-21.2-2.34-31.27-.42-4.74,3.35-6.94,6.13-9.5,8.78-8.06,12.16-18.1,12.13-29.74-.06-21.72-.31-43.44.09-65.16.25-13.87-3.69-25.61-14.18-34.93-2.36-2.09-4.75-4.25-4.7-7.83,5-12.07,4.64-24.17.26-36.31a5.11,5.11,0,0,1,1.53-4.31c15.9-12.87,18-30.25,17.15-49.17-.77-16.14-.64-32.36,0-48.52.58-15.1-3.12-28.05-14.79-38.22-2.05-1.79-4.06-3.83-3.82-7,5.76-7.84,1.94-16.75,2.58-25.13.69-9,.15-18.14.14-27.22,14.66-.17,29.33-.2,44-.55,6.8-.17,9.31,3,8.89,9.43-.15,2.37,0,4.76,0,7.14q0,425,.3,849.9c0,11.89-3.35,14.35-14.5,14-25.76-.8-51.56-.06-77.35-.13-3.82,0-7.93,1.36-11.49-1.33,13.46-.17,26.93-.62,40.38-.4,6.73.11,10-1.32,10-9.09q-.33-147.41-.14-294.82c0-2.75.3-5.61-2.17-7.68-1-5.45,3.68-7.53,6.58-10.38A36.24,36.24,0,0,0,854,579.92q.27-36.28,0-72.58c-.1-12.19-5-22.22-14.56-29.95C836.81,475.27,833,473.82,833.64,469.26Z" transform="translate(-67 -14.24)"/><path class="cls-4" d="M675.24,738.37c-35.67,0-71.36-.49-107,.26-12.91.27-12.83-6.72-12.63-15.77.19-8.88-1.46-17.23,12.61-17.13q108.21.78,216.42.07c15.21-.1,12.17,9.42,12.67,18.24.53,9.23-1,14.74-12.66,14.52-36.45-.66-72.92-.24-109.39-.24Z" transform="translate(-67 -14.24)"/><path class="cls-1" d="M1036.08,557.41c2.92,2.34,2.26,5.64,2.26,8.7q.06,35.28,0,70.55c0,3.06.67,6.37-2.22,8.72-9.92-6.5-20.81-8.71-32.61-8.52-22.15.37-44.3-.12-66.44.24-7.2.11-10.71-1.05-10.36-9.58.71-17.37.7-34.82,0-52.19-.33-8.45,3-9.75,10.31-9.62,22.15.37,44.3-.1,66.44.22C1015.25,566.11,1026.17,563.91,1036.08,557.41Z" transform="translate(-67 -14.24)"/><path class="cls-5" d="M750.15,800.17q.24,61.2.48,122.39c0,3.48.71,7.78-4.83,7.5-16.79-.88-33.72,2.31-50.39-1.82-2.37-13.31-.8-26.74-.95-40.1-.3-26.07.39-52.16-.33-78.22-.28-10.25,4-13.94,13-13.37C721.52,797.44,736.35,792.87,750.15,800.17Z" transform="translate(-67 -14.24)"/><path class="cls-5" d="M603.42,928.84c-2.53-20-.78-40.07-1-60.11-.26-22.85.23-45.7.4-68.56,16.32-7.26,33.26-3.42,50-2.58,4.06.2,5.85,3.41,5.78,7.6-.67,41,1.39,82.07-1.07,123.08l-.52.54A267.13,267.13,0,0,1,603.42,928.84Z" transform="translate(-67 -14.24)"/><path class="cls-5" d="M972.84,774.07c12.29,0,24.58.17,36.87-.09,5.07-.11,7,1.53,6.87,6.77-.26,16.64-.17,33.29-.06,49.94,0,7.25-3.75,9.63-10.48,9.6-23.78-.13-47.56-.25-71.34.08-6.54.09-8-2.47-7.89-8.4.3-16.64.36-33.29,0-49.93-.14-6.21,1.7-8.32,8-8.1C947.47,774.37,960.16,774.07,972.84,774.07Z" transform="translate(-67 -14.24)"/><path class="cls-5" d="M971.18,428.74c-12.29,0-24.58-.23-36.86.11-5.61.15-7.62-1.58-7.52-7.37.32-17,.38-34.09,0-51.13-.15-6.57,2.51-7.94,8.4-7.88,23.39.24,46.78.29,70.16,0,8.21-.1,11.4,3.2,11.24,11.31q-.47,23.78,0,47.56c.11,5.61-1.57,7.68-7.36,7.51C996.56,428.49,983.87,428.74,971.18,428.74Z" transform="translate(-67 -14.24)"/><path class="cls-5" d="M971,738.39c-11.91,0-23.83-.39-35.71.14-7,.31-8.7-2.25-8.53-8.84.43-16.26.37-32.54,0-48.8-.13-6.1,1.69-8.42,8-8.35q35.7.42,71.41,0c7.87-.07,10.45,3.53,10.34,10.89-.24,15.87-.3,31.75,0,47.61.12,5.81-1.9,7.55-7.51,7.41C996.41,738.16,983.7,738.38,971,738.39Z" transform="translate(-67 -14.24)"/><path class="cls-5" d="M972.4,464.42c11.9,0,23.82.38,35.7-.14,7-.31,8.72,2.23,8.53,8.83-.43,15.46-.32,30.95-.06,46.42.12,7.54-2.88,10.76-10.55,10.69-23.8-.21-47.61-.16-71.41,0-5.32,0-7.92-1.3-7.81-7.32q.48-25.57,0-51.17c-.11-5.8,1.89-7.55,7.51-7.41C947,464.65,959.7,464.43,972.4,464.42Z" transform="translate(-67 -14.24)"/><path class="cls-6" d="M928.65,274c32.51.13,65,.68,97.53.15,10.2-.17,12.85,3.15,12.38,12.83-.79,16.62-.36,33.29-.45,49.95-10.73-7.66-22.65-10.45-35.82-10.17-22.21.48-44.44-.08-66.66.26-6.52.11-9.47-1.44-8.8-8.51C928.24,303.69,924.64,288.68,928.65,274Z" transform="translate(-67 -14.24)"/><path class="cls-6" d="M1038.1,865.83c.09,17.46-.26,34.93.45,52.36.35,8.84-3.28,10.46-11.13,10.4-32.92-.22-65.85.12-98.77.25-4-16.19-.93-32.62-1.53-48.92-.2-5.6,5-3.88,8.08-3.9,22.06-.14,44.13-.42,66.18.05C1014.83,876.36,1027.13,873.8,1038.1,865.83Z" transform="translate(-67 -14.24)"/><path class="cls-7" d="M152.48,805.26c-13.3-11.18-26.43-22.56-40-33.43-4.52-3.64-5.31-6.48-2.71-11.86,13.09-27,25.72-54.17,38.51-81.28,6.77-2.45,8.06,3.41,9.92,7.18,12.21,24.8,23.49,50,35.22,75.08,3,6.46,2.23,12.77-2.62,17.59-9.5,9.45-19.41,18.53-30.58,26.07C157.82,806.25,155.22,806.91,152.48,805.26Z" transform="translate(-67 -14.24)"/><path class="cls-7" d="M1181,807.53c-14.6-12.09-29.08-24.35-43.87-36.2-5-4-3.66-7.63-1.44-12.3,13.08-27.45,26-55,38.9-82.53,4-.52,5.59,2.35,6.94,5.21,11.79,24.92,23.73,49.78,35,74.92,4.72,10.5,2.82,18.81-5.6,26.46C1201.45,791.79,1192.42,801.08,1181,807.53Z" transform="translate(-67 -14.24)"/><path class="cls-8" d="M1128.28,810.5c14.07,12,26,22.36,38,32.44a13,13,0,0,1,5.11,11.19c-.23,22.57-.27,45.15,0,67.72.07,5.94-1.39,8.11-7.81,8.43-35.38,1.74-35.37,1.93-35.37-33Z" transform="translate(-67 -14.24)"/><path class="cls-8" d="M224.67,811.69c0,37.94-.15,74.33.13,110.72,0,6.56-2.45,8.27-8.35,7.74-11.33-1-26.06,4.84-33-2.5-5.43-5.71-1.54-20.28-1.79-30.91,0-1.19,0-2.38,0-3.57C181.62,842.93,181.62,842.93,224.67,811.69Z" transform="translate(-67 -14.24)"/><path class="cls-9" d="M1181,807.53c6.46-10.81,17.74-16.59,26.57-24.91s11.23-15.33,5.49-26.73c-13.21-26.26-23.64-53.88-38.47-79.39l14.52-31.72c18.75,40.16,36.5,78.53,54.67,116.71,2.77,5.82-.61,7.76-3.9,10.59-14.46,12.39-29.17,24.5-43.17,37.38C1189.93,815.73,1185.45,815,1181,807.53Z" transform="translate(-67 -14.24)"/><path class="cls-9" d="M152.48,805.26c14.77-6.47,24.75-19.08,36.71-29.11,3.49-2.93,4.65-7.74,2.14-13-12.6-26.34-24.85-52.85-37.26-79.28-1.17-2.48-2.35-5.13-5.77-5.19l15.39-33.79c11.71,24.88,22.69,48.1,33.59,71.36,6.73,14.34,13.05,28.88,20.15,43,2.89,5.76,1.9,9.12-2.9,13.06-13.48,11.08-27.21,22-39.65,34.16C165.94,815.26,159.42,815.39,152.48,805.26Z" transform="translate(-67 -14.24)"/><path class="cls-10" d="M371.93,636.23V566.58c15.81-.24,31.62-.38,47.43-.77,5.19-.13,6.81,2.09,6.76,7.08q-.28,28.51,0,57c.05,5-1.56,7.21-6.76,7.08C403.55,636.61,387.74,636.47,371.93,636.23Z" transform="translate(-67 -14.24)"/><path class="cls-11" d="M340.32,364.14c11.58-3.56,23.43-1.17,35.15-1.5,13.47-.39,27,.27,40.42-.23,7.38-.27,10.69,1.31,10.35,9.65-.65,16.22-.45,32.5-.06,48.74.14,6.25-1.83,8.28-8.08,8.07-15.43-.49-30.89-.39-46.34-.53-5.47-6.47-3.34-14.28-3.61-21.6-.35-9.06-.26-18.15-.06-27.22.18-7.88-2.94-11.56-11.14-11.44C351.23,368.17,344.94,369.28,340.32,364.14Z" transform="translate(-67 -14.24)"/><path class="cls-11" d="M371.76,774.46c15.45-.13,30.9,0,46.33-.53,6.24-.2,8.23,1.8,8.09,8.07-.38,16.63-.19,33.28-.09,49.92,0,4.71,0,8.49-6.6,8.42-25.36-.25-50.72-.1-76.08-.2-1,0-2-1-3-1.49,4.63-5.11,10.91-4,16.63-3.92,8.23.13,11.22-3.62,11.1-11.47q-.25-17.14,0-34.31C368.22,783.88,367.73,778.58,371.76,774.46Z" transform="translate(-67 -14.24)"/><path class="cls-11" d="M371.76,464.84c15.44-.14,30.89-.06,46.33-.53,6.19-.2,8.24,1.78,8.09,8.06-.39,16.64-.18,33.29-.1,49.93,0,4.27,0,8.08-5.94,7.87-26.43-.92-52.91,1.93-79.31-1.23,4.73-4.83,10.94-3.71,16.65-3.74,7.46,0,10.61-3.34,10.6-10.67,0-12.15-.12-24.3.08-36.45C368.24,473.39,368.13,468.59,371.76,464.84Z" transform="translate(-67 -14.24)"/><path class="cls-11" d="M340.8,673.86c26.4-3.14,52.89-.32,79.32-1.22,4.76-.16,6,2.34,6,6.66-.13,17.44-.3,34.88.07,52.32.14,6.45-3.14,6.91-8.08,6.82-15.44-.28-30.89-.33-46.33-.47-3.92-4.12-3.53-9.37-3.61-14.43-.18-11.76-.11-23.52-.07-35.28,0-7.36-3.18-10.62-10.63-10.66C351.74,677.58,345.53,678.71,340.8,673.86Z" transform="translate(-67 -14.24)"/><path class="cls-2" d="M262.12,928.81c31.73-.13,63.46-.74,95.17-.11,11.11.22,15.76-2.14,14.7-14.16-1.1-12.6-.26-25.37-.27-38.06,15.42-.17,30.84-.15,46.24-.62,6-.19,8.43,1.53,8.21,7.94-.44,13.05-.28,26.12-.06,39.17.09,4.91-1.35,7.21-6.62,7.2q-77.74-.12-155.5-.06C263.37,930.11,262.75,929.26,262.12,928.81Z" transform="translate(-67 -14.24)"/><path class="cls-12" d="M1195.45,1026.21c2.39-19.89,3.76-39.78.13-59.69,15.05-.17,30.11-.25,45.16-.55,7.22-.15,9.74,3.27,9.59,10.23-.3,13.48-.28,27,0,40.45.13,7-2.42,10.23-9.69,10.05C1225.57,1026.33,1210.51,1026.35,1195.45,1026.21Z" transform="translate(-67 -14.24)"/><path class="cls-13" d="M371.72,326.33q0-28.45,0-56.9c14.05,6.05,28.85,2.84,43.28,3,8.63.08,12,2,11.28,11.18a275.82,275.82,0,0,0-.07,33.16c.31,7.19-1,10.78-9.48,10.3C401.74,326.2,386.72,326.51,371.72,326.33Z" transform="translate(-67 -14.24)"/><path class="cls-5" d="M371.76,464.84c0,17.79-.41,35.6.16,53.38.28,8.55-2.84,11.19-10.94,10.57-6.68-.51-13.43.06-20.15.15-5.08-1.61-4.33-5.92-4.34-9.73-.07-15.34.23-30.69-.16-46-.16-6.35,1.2-9.41,8.32-8.89C353.65,465,362.72,464.7,371.76,464.84Z" transform="translate(-67 -14.24)"/><path class="cls-5" d="M340.8,673.86c9.73,1.37,22.35-4.09,28.6,2.36,6.64,6.87,1.87,19.58,2.26,29.71.41,10.67.09,21.36.09,32-11.32.42-25.71,4.8-33.08-1.52-7-6-1.62-20.73-2.15-31.6-.34-7.07-.12-14.16,0-21.24C336.54,679.8,335.73,675.49,340.8,673.86Z" transform="translate(-67 -14.24)"/><path class="cls-14" d="M340.32,364.14c4.71.13,9.41.33,14.11.38,19.52.21,17.17-2.06,17.3,17.92.1,15.3,0,30.6,0,45.9-11.3.43-25.62,4.74-33-1.44-7.11-5.92-2.56-20.71-2-31.45C337.35,385,332.16,373.72,340.32,364.14Z" transform="translate(-67 -14.24)"/><path class="cls-15" d="M371.76,774.46c0,16.87-.76,33.78.25,50.59.69,11.41-3.66,14.46-14,13.36-5.8-.61-11.74.11-17.62.24a5.48,5.48,0,0,1-3.77-5.38c-.09-18,0-36.09-.15-54.13-.05-5.47,3.53-5.12,7.11-5.07Z" transform="translate(-67 -14.24)"/><path class="cls-16" d="M657.51,928.27c0-38.77-.39-77.54.06-116.31.12-9.44-2.65-12.47-12-12-14.21.73-28.48.19-42.72.19-1.71-26.09-1.71-26.33,23.6-26,10.52.15,24.51-4.73,30.56,2.25,5.2,6,1.87,19.59,1.9,29.83q.17,55.28,0,110.56C658.83,920.63,660.27,924.74,657.51,928.27Z" transform="translate(-67 -14.24)"/><path class="cls-16" d="M750.15,800.17c-14.64,0-29.29.4-43.9-.16-8.29-.32-10.89,2.42-10.82,10.76.32,39.15.05,78.32,0,117.47-2.95-5.19-1.27-10.83-1.29-16.21-.17-42.39.21-84.79-.3-127.18-.11-9.14,2.58-11.54,11.34-11a311.57,311.57,0,0,0,35.64,0c7.53-.37,11,1.58,9.93,9.67C750,789.05,750.31,794.64,750.15,800.17Z" transform="translate(-67 -14.24)"/><path class="cls-2" d="M793.15,774.37c-5.4,3.22-4.67,8.48-4.68,13.61q-.08,70.49-.25,141c-3.36-1.72-2-4.87-2-7.38q-.13-69.51-.08-139C786.17,777.8,785.17,772.29,793.15,774.37Z" transform="translate(-67 -14.24)"/><path class="cls-16" d="M603.42,928.84l53.57,0A200.19,200.19,0,0,1,603.42,928.84Z" transform="translate(-67 -14.24)"/><path class="cls-10" d="M372,566.62c-12.81.13-25.74,3-38.35-1.62Z" transform="translate(-67 -14.24)"/><path class="cls-10" d="M333.64,637.79c12.62-4.53,25.56-1.74,38.38-1.6Z" transform="translate(-67 -14.24)"/><path d="M650.5,177.15c0,11.5.13,23,0,34.5-.36,24-16.46,41.59-40.58,42.47-24.55.9-49.18.87-73.74,0s-40.64-18.48-40.83-43.4q-.27-34.5,0-69c.22-25.28,17-42.66,42.31-43.17q35.08-.7,70.19,0c25.79.48,42.43,18,42.66,44.07C650.59,154.15,650.5,165.65,650.5,177.15Z" transform="translate(-67 -14.24)"/><path d="M835.62,102.82c15.87,10.38,23.07,24.74,22.25,44-.84,19.73-.83,39.56,0,59.29.8,19.22-6.4,33.59-22.3,43.94-14,5.81-28.78,4.29-43.37,4.37-15.07.08-30.14.2-45.2,0-27.5-.42-44.39-17.39-44.52-44.67-.12-23-.21-46,0-69,.24-22.49,15.07-40.34,37.44-41.58,26.86-1.48,53.87-.5,80.81-.1C825.73,99.11,830.67,101.5,835.62,102.82Z" transform="translate(-67 -14.24)"/><path d="M650.46,544c0,12.29.29,24.59-.05,36.87-.62,22.39-17.67,40-40,40.56q-37.44.87-74.92,0A40.63,40.63,0,0,1,495.41,581q-.65-37.46,0-74.93c.38-21.42,16.77-38.84,38.15-39.52,26.13-.83,52.34-.82,78.47,0,21.43.67,37.66,18,38.34,39.38C650.78,518.59,650.45,531.29,650.46,544Z" transform="translate(-67 -14.24)"/><path d="M833.64,469.26c17.45,10,25.1,24.93,24.22,45.18-.83,19.35-.86,38.79,0,58.13.86,19.14-5.83,33.81-21.69,44.38a69.68,69.68,0,0,1-27.79,4.72c-21-.36-42,0-63-.16-25.13-.24-42.65-17.53-42.91-42.47q-.36-35.64,0-71.3c.26-23.38,16.67-40.71,40-41.34,24.94-.67,49.91-.34,74.85,0C822.84,466.43,828.24,468.25,833.64,469.26Z" transform="translate(-67 -14.24)"/><path d="M650.49,360.55c0,11.89.2,23.79,0,35.68-.48,23.13-17.14,40.91-40.27,41.59-25,.73-50,.77-74.93,0-23.07-.74-39.62-18.59-39.9-41.88q-.44-36.29,0-72.56c.31-21.78,15.51-39.33,37.26-40.38,26.88-1.3,53.93-1.3,80.82,0,21.63,1.09,36.56,18.83,37,40.66C650.69,336,650.49,348.26,650.49,360.55Z" transform="translate(-67 -14.24)"/><path d="M835.31,286.33c16.46,10.51,23.47,25.34,22.57,45-.89,19.33-.85,38.76,0,58.09s-6.1,33.69-22,44.11c-12,5.21-24.7,4.65-37.36,4.56-17-.11-34.09.07-51.13-.05-27.44-.21-44.71-17.21-44.86-44.28-.14-23.78-.31-47.57.1-71.35.34-20,14.83-37.26,34.66-39,28.41-2.5,57-1.77,85.48-.18C827,283.42,831.12,285.24,835.31,286.33Z" transform="translate(-67 -14.24)"/><path class="cls-17" d="M614.8,177.13c0,10.69-.2,21.4.06,32.09.16,6.55-2.68,9.48-9.11,9.47-21.79,0-43.58-.08-65.37,0-7.18,0-9.57-3.38-9.49-10.32q.4-32.09,0-64.18c-.09-7.11,2.68-10.12,9.71-10.08,21.39.12,42.79.18,64.18,0,7.85-.08,10.38,3.51,10.12,10.93C614.52,155.72,614.8,166.43,614.8,177.13Z" transform="translate(-67 -14.24)"/><path class="cls-17" d="M822,176.3c0,10.7-.25,21.4.09,32.09.21,6.93-2.3,10.37-9.49,10.33-21.79-.1-43.58-.06-65.37,0-6.42,0-9.17-2.92-9.11-9.47.2-21.79.24-43.58,0-65.37-.09-7.36,3.31-9.76,10.09-9.72q32.08.19,64.18,0c7,0,9.95,3,9.72,10.07C821.71,154.9,822,165.61,822,176.3Z" transform="translate(-67 -14.24)"/><path class="cls-17" d="M614.8,544.76c0,10.29-.22,20.59.07,30.88.19,6.76-1.89,10.37-9.36,10.29-21.77-.22-43.54-.17-65.32,0-6.47.05-9.31-2.53-9.26-9.15q.27-33.25,0-66.51c0-6.18,2.93-8.44,8.71-8.42q33.26.09,66.51,0c6.81,0,8.84,3.43,8.7,9.7C614.62,522.59,614.8,533.68,614.8,544.76Z" transform="translate(-67 -14.24)"/><path class="cls-17" d="M738.16,543.11c0-10.69.2-21.39-.07-32.07-.16-6.61,2.67-9.28,9.16-9.24,21.77.12,43.54.18,65.31,0,7.33-.07,9.58,3.23,9.5,10.15q-.37,32.05,0,64.12c.07,7.07-2.58,10-9.76,9.91-21.38-.24-42.76-.29-64.13,0-8,.12-10.35-3.39-10.09-10.79C738.44,564.49,738.16,553.79,738.16,543.11Z" transform="translate(-67 -14.24)"/><path class="cls-17" d="M572.88,402.31c-10.7,0-21.4-.17-32.09.06-7,.15-10-2.65-9.89-9.85q.39-32.68,0-65.37c-.07-6.74,3-9.24,9.28-9.22q32.68.07,65.37,0c6.26,0,9.38,2.47,9.31,9.22q-.32,32.69,0,65.37c.08,7.2-2.93,10-9.91,9.85C594.28,402.14,583.58,402.31,572.88,402.31Z" transform="translate(-67 -14.24)"/><path class="cls-17" d="M822,360.42c0,10.69-.24,21.4.08,32.08.21,7.2-2.89,9.93-9.89,9.87q-32.08-.25-64.18,0c-7,.05-10-2.62-9.91-9.84q.39-32.68,0-65.37c-.06-6.72,3-9.25,9.3-9.23,21.79.05,43.58.09,65.36,0,7.32,0,9.54,3.6,9.32,10.43C821.72,339,822,349.72,822,360.42Z" transform="translate(-67 -14.24)"/></svg>